<?xml version="1.0" encoding="utf-8"?>
<!-- Generator: Adobe Illustrator 16.0.0, SVG Export Plug-In . SVG Version: 6.00 Build 0)  -->
<!DOCTYPE svg PUBLIC "-//W3C//DTD SVG 1.1//EN" "http://www.w3.org/Graphics/SVG/1.1/DTD/svg11.dtd">
<svg version="1.1" xmlns="http://www.w3.org/2000/svg" xmlns:xlink="http://www.w3.org/1999/xlink" x="0px" y="0px" width="200px"
	 height="200px" viewBox="0 0 200 200" enable-background="new 0 0 200 200" xml:space="preserve">
<g id="Layer_7">
	<g id="Layer_6">
		<circle fill="#D3D1D1" cx="96" cy="91" r="73.667"/>
	</g>
</g>
<g id="Layer_5">
	<polygon fill="#F1D7D3" stroke="#3C3C3C" stroke-miterlimit="10" points="104.5,135.636 98.007,136.518 91.5,135.636 91.5,119.5 
		104.5,119.5 	"/>
	<rect x="92" y="117" fill="#E1BBB3" width="12" height="8"/>
</g>
<g id="Head_1_">
	<path fill="#F1D7D3" stroke="#3C3C3C" stroke-miterlimit="10" d="M129.413,64.192c0,17.651,6.157,56.528-31.958,56.528
		c-36.823,0-31.958-38.877-31.958-56.528c0-17.65,14.308-31.958,31.958-31.958C115.105,32.234,129.413,46.542,129.413,64.192z"/>
	<path fill="#E5CACA" d="M74.469,68.046L74.5,92.25c0,0,5.412,17.474,6.202,18.182c0.558,0.499-9.286-3.18-12.678-10.164
		c-1.562-3.793-1.119-9.89-1.63-13.578c-1.564-11.266-0.838-20.411-0.838-20.411L74.469,68.046"/>
	<path fill="#FFFFFF" stroke="#3C3C3C" stroke-miterlimit="10" d="M97.5,131.333c-23.168,0-35.02,11.398-41.026,21.818
		c11.423,7.28,24.976,11.516,39.526,11.516c15.472,0,29.822-4.779,41.677-12.929C131.426,141.728,119.623,131.333,97.5,131.333z"/>
</g>
<g id="Hair">
</g>
<g id="Face">
	<path fill="#515151" stroke="#3C3C3C" stroke-miterlimit="10" d="M118.226,35.95c0,0-6.042-10.95-21.146-10.95
		c-15.104,0-26.587,3.021-31.796,16.614s-2.943,23.411-2.943,23.411s14.236,7.174,27.697,0
		c13.461-7.174,17.992-14.349,17.992-14.349s3.517,9.469,12.461,12.46c8.943,2.992,11.327,5.077,11.327,5.077s4.531-16.027,0-24.334
		C127.288,35.573,118.226,35.95,118.226,35.95z"/>
	<circle fill="#3C3C3C" cx="82.731" cy="77.234" r="2.14"/>
	<circle fill="#3C3C3C" cx="111.429" cy="77.234" r="2.14"/>
	<path fill="#515151" stroke="#3C3C3C" stroke-miterlimit="10" d="M77.067,69.934"/>
	<path fill="#515151" stroke="#3C3C3C" stroke-miterlimit="10" d="M117.093,69.934"/>
	<path fill="#515151" stroke="#3C3C3C" stroke-miterlimit="10" d="M105.765,69.934"/>
	<path fill="none" stroke="#3C3C3C" stroke-miterlimit="10" d="M88.395,100.268c0,0,2.917,4.027,9.137,4.027
		c6.219,0,9.491-4.027,9.491-4.027"/>
	<path fill="none" stroke="#3C3C3C" stroke-miterlimit="10" d="M98.977,83.444c0,0-5.146,8.056-1.444,8.056c3.701,0,3.468,0,3.468,0
		"/>
	<path fill="none" stroke="#3C3C3C" stroke-miterlimit="10" d="M78.578,73.081c0,0,0.205-2.58,4.201-2.58
		c3.995,0,4.61,2.832,4.61,2.832"/>
	<path fill="none" stroke="#3C3C3C" stroke-miterlimit="10" d="M107.275,73.081c0,0,0.205-2.58,4.2-2.58s4.609,2.832,4.609,2.832"/>
</g>
</svg>
